<?xml version="1.0" standalone="no"?>
<!DOCTYPE svg PUBLIC "-//W3C//DTD SVG 20010904//EN"
 "http://www.w3.org/TR/2001/REC-SVG-20010904/DTD/svg10.dtd">
<svg version="1.0" xmlns="http://www.w3.org/2000/svg"
 width="1024.000000pt" height="1024.000000pt" viewBox="0 0 1024.000000 1024.000000"
 preserveAspectRatio="xMidYMid meet">

<g transform="translate(0.000000,1024.000000) scale(0.100000,-0.100000)"
fill="#000000" stroke="none">
<path d="M8770 5878 c0 -134 -3 -266 -6 -295 l-7 -52 -61 51 c-81 68 -134 90
-228 96 -294 17 -518 -229 -518 -568 1 -190 59 -346 173 -462 72 -74 173 -128
237 -128 l40 0 0 -486 0 -486 29 -29 c26 -25 37 -29 86 -29 46 0 60 4 80 25
24 24 25 28 25 183 l0 160 28 7 c15 4 93 6 173 6 181 -2 184 0 184 119 0 43
-4 82 -8 87 -5 4 -90 10 -190 13 l-182 5 -3 165 c-3 169 8 250 34 250 24 0
169 63 210 91 53 36 130 121 156 173 50 98 51 103 55 744 l5 602 -156 0 -156
0 0 -242z m-154 -473 c47 -19 105 -76 126 -122 25 -56 39 -173 28 -237 -36
-223 -186 -337 -345 -262 -60 28 -73 42 -116 125 -31 59 -34 73 -37 170 -3 88
0 115 17 162 57 151 191 219 327 164z"/>
<path d="M4340 6086 c-104 -24 -155 -59 -193 -130 -18 -35 -22 -61 -25 -178
l-4 -138 -72 0 c-43 0 -77 -5 -84 -12 -8 -8 -12 -48 -12 -115 l0 -103 85 0 85
0 0 -440 0 -440 155 0 155 0 0 440 0 440 84 0 c59 0 87 4 95 14 8 9 11 48 9
112 l-3 99 -92 3 -93 3 0 88 c0 108 5 114 104 121 l71 5 0 120 0 120 -105 2
c-58 1 -130 -4 -160 -11z"/>
<path d="M1000 6013 c0 -5 14 -60 31 -123 153 -581 314 -1197 325 -1250 8 -36
16 -75 19 -87 5 -23 8 -23 169 -23 119 0 166 3 173 13 5 6 62 227 127 490 65
262 122 477 126 477 17 0 48 -105 155 -530 l111 -445 157 -3 c155 -2 157 -2
167 20 10 24 140 550 210 848 22 96 63 271 90 388 28 116 50 217 50 222 0 6
-56 10 -145 10 -142 0 -145 0 -150 -22 -2 -13 -52 -219 -110 -458 -58 -240
-105 -446 -105 -458 0 -12 -4 -22 -10 -22 -5 0 -10 9 -10 19 0 10 -20 86 -45
167 -25 82 -75 262 -111 399 -74 285 -91 345 -102 363 -7 9 -44 12 -153 10
l-144 -3 -125 -487 c-69 -268 -128 -484 -131 -480 -3 4 -14 45 -23 92 -10 47
-36 148 -58 225 -44 155 -66 236 -128 465 -22 85 -43 163 -46 173 -5 15 -21
17 -160 17 -85 0 -154 -3 -154 -7z"/>
<path d="M3292 5660 c-76 -11 -195 -59 -249 -100 -62 -47 -107 -114 -128 -194
-26 -96 -26 -96 113 -96 118 0 142 6 142 38 0 35 35 84 73 104 32 16 54 19
112 16 92 -4 147 -37 177 -105 39 -88 8 -118 -134 -133 -53 -5 -108 -14 -122
-20 -15 -5 -64 -19 -109 -31 -134 -34 -217 -95 -263 -193 -29 -61 -32 -149 -8
-220 21 -60 102 -150 165 -182 43 -22 61 -24 171 -24 115 0 127 2 183 29 33
15 81 44 108 65 26 20 49 36 50 36 2 0 4 -15 4 -32 0 -18 1 -46 2 -61 l1 -28
128 3 127 3 0 435 0 435 -24 53 c-53 118 -179 179 -421 205 -25 3 -69 1 -98
-3z m256 -705 c-6 -86 -29 -129 -91 -171 -47 -31 -129 -50 -180 -40 -52 10
-107 60 -107 98 0 40 24 82 65 113 28 22 57 30 155 45 67 10 124 21 127 24 4
3 13 6 21 6 12 0 14 -14 10 -75z"/>
<path d="M5332 5659 c-113 -22 -188 -81 -246 -194 l-25 -50 -1 81 c0 45 -3 96
-6 113 l-6 31 -127 0 c-86 0 -131 -4 -139 -12 -9 -9 -12 -146 -12 -555 l0
-543 150 0 149 0 7 37 c4 20 4 156 0 303 l-7 266 26 69 c14 39 38 82 52 97 35
37 111 64 203 73 114 10 110 4 110 154 l0 129 -31 6 c-36 7 -39 7 -97 -5z"/>
<path d="M5975 5659 c-160 -27 -288 -122 -379 -283 -60 -106 -80 -195 -74
-330 6 -122 32 -204 94 -297 75 -114 170 -183 299 -218 50 -14 285 -14 345 0
131 30 280 148 335 266 91 192 83 389 -26 593 -114 215 -331 313 -594 269z
m223 -281 c89 -46 159 -199 149 -324 -5 -65 -40 -155 -82 -210 -48 -63 -154
-90 -246 -62 -72 21 -170 151 -185 246 -3 22 -1 80 6 128 13 99 44 162 104
208 67 51 171 57 254 14z"/>
<path d="M6782 5203 c4 -509 5 -509 94 -600 68 -69 117 -83 286 -83 119 0 133
2 180 26 29 15 78 51 110 81 l57 55 3 -78 c2 -44 6 -78 11 -76 4 1 68 2 142 2
l135 0 0 555 0 556 -152 -3 -153 -3 0 -360 0 -360 -27 -47 c-35 -59 -94 -89
-188 -96 -114 -8 -166 22 -192 112 -9 29 -13 145 -13 396 l0 355 -148 3 -148
3 3 -438z"/>
</g>
</svg>
